<?xml version="1.0" standalone="no"?><!DOCTYPE svg PUBLIC "-//W3C//DTD SVG 1.1//EN" "http://www.w3.org/Graphics/SVG/1.1/DTD/svg11.dtd"><svg t="1691025441908" class="icon" viewBox="0 0 1024 1024" version="1.1" xmlns="http://www.w3.org/2000/svg" p-id="3574" xmlns:xlink="http://www.w3.org/1999/xlink" width="200" height="200"><path d="M741.327238 121.904762c38.083048 0 68.973714 31.280762 68.973714 69.875809v201.191619h4.144762c38.595048 0 69.87581 30.890667 69.87581 68.998096l-0.024381 47.177143-69.851429 64.682666v-90.770285l-260.973714 212.699428a105.837714 105.837714 0 0 1-128.24381 3.413333l-4.36419-3.315809-258.535619-207.043048 0.024381 341.040762h403.139048l66.852571 68.998095H162.352762c-38.595048 0-69.87581-30.890667-69.87581-68.998095V461.970286c0-38.107429 31.280762-68.998095 69.87581-68.998096h4.144762V191.780571C166.521905 153.185524 197.38819 121.904762 235.52 121.904762h505.831619z m136.752762 510.780952L926.47619 682.422857l-187.635809 187.221333-113.712762-113.68838 48.444952-49.737143 65.340953 65.316571 139.166476-138.873905z m-136.777143-440.905143H235.495619v266.800762l229.522286 183.783619c11.946667 9.654857 28.769524 10.337524 41.301333 2.145524l2.828191-2.048 232.179809-189.244952V191.780571z m-160.914286 209.603048v69.851429H327.43619v-69.851429h252.90362z m68.973715-139.751619v69.87581H327.43619v-69.87581h321.901715z" p-id="3575"></path></svg>