<?xml version="1.0" standalone="no"?><!DOCTYPE svg PUBLIC "-//W3C//DTD SVG 1.1//EN" "http://www.w3.org/Graphics/SVG/1.1/DTD/svg11.dtd"><svg t="1672825604760" class="icon" viewBox="0 0 1024 1024" version="1.1" xmlns="http://www.w3.org/2000/svg" p-id="5241" xmlns:xlink="http://www.w3.org/1999/xlink" width="200" height="200"><path d="M83.3 569.2h857.9v261.1c0 41-33.6 74.6-74.7 74.6H158.1c-41.1 0-74.7-33.6-74.7-74.6V569.2z" fill="#0D4FF7" p-id="5242"></path><path d="M866.5 923.5H158.1c-51.5 0-93.4-41.8-93.4-93.2V569.2c0-10.3 8.3-18.6 18.6-18.6h857.9c10.3 0 18.6 8.3 18.6 18.6v261.1c0.1 51.4-41.8 93.2-93.3 93.2zM102 587.8v242.4c0 30.9 25.2 55.9 56.1 55.9h708.4c30.9 0 56.1-25.1 56.1-55.9V587.8H102z" fill="#231815" p-id="5243"></path><path d="M941.2 587.8c-10.3 0-18.6-8.3-18.6-18.6V289.4H102v279.7c0 10.3-8.3 18.6-18.6 18.6s-18.6-8.3-18.6-18.6V270.8c0-10.3 8.3-18.6 18.6-18.6h857.9c10.3 0 18.6 8.3 18.6 18.6v298.4c0 10.3-8.4 18.6-18.7 18.6z" fill="#231815" p-id="5244"></path><path d="M269.8 289.4c-10.3 0-18.6-8.3-18.6-18.6v-37.3c0-10.3 8.3-18.6 18.6-18.6h55.9v-18.6c0-30.9 25.1-55.9 55.9-55.9H419c10.3 0 18.6 8.3 18.6 18.6s-8.3 18.6-18.6 18.6h-37.3c-10.3 0-18.6 8.4-18.6 18.6v37.3c0 10.3-8.3 18.6-18.6 18.6h-55.9v18.6c-0.1 10.4-8.4 18.7-18.8 18.7z" fill="#231815" p-id="5245"></path><path d="M605.5 214.8H419c-10.3 0-18.6-8.3-18.6-18.6v-74.6c0-10.3 8.3-18.6 18.6-18.6h186.5c10.3 0 18.6 8.3 18.6 18.6v74.6c0.1 10.3-8.3 18.6-18.6 18.6z m-167.8-37.3h149.2v-37.3H437.7v37.3z" fill="#231815" p-id="5246"></path><path d="M754.7 289.4c-10.3 0-18.6-8.3-18.6-18.6v-18.6h-55.9c-10.3 0-18.6-8.3-18.6-18.6v-37.3c0-10.3-8.4-18.6-18.6-18.6h-37.3c-10.3 0-18.6-8.3-18.6-18.6s8.3-18.6 18.6-18.6H643c30.9 0 55.9 25.1 55.9 55.9V215h55.9c10.3 0 18.6 8.3 18.6 18.6v37.3c0 10.2-8.4 18.5-18.7 18.5zM381.7 699.7H269.8c-10.3 0-18.6-8.3-18.6-18.6V494.6c0-10.3 8.3-18.6 18.6-18.6h111.9c10.3 0 18.6 8.3 18.6 18.6v186.5c0.1 10.3-8.3 18.6-18.6 18.6z m-93.2-37.3h74.6V513.2h-74.6v149.2zM754.7 699.7H642.8c-10.3 0-18.6-8.3-18.6-18.6V494.6c0-10.3 8.3-18.6 18.6-18.6h111.9c10.3 0 18.6 8.3 18.6 18.6v186.5c0.1 10.3-8.3 18.6-18.6 18.6z m-93.2-37.3h74.6V513.2h-74.6v149.2z" fill="#231815" p-id="5247"></path><path d="M83.3 830.3c0 41 33.6 74.6 74.7 74.6h119.1c19.6-113.2 118-199.4 236.9-199.4s217.3 86.2 236.9 199.4h115.6c41.1 0 74.7-33.6 74.7-74.6V569.2H83.3v261.1z" fill="#FFFFFF" p-id="5248"></path><path d="M866.5 923.5H751c-9.1 0-16.8-6.5-18.4-15.5-18.4-106.6-110.3-184-218.5-184S314 801.4 295.6 908c-1.5 8.9-9.3 15.5-18.4 15.5H158.1c-51.5 0-93.4-41.8-93.4-93.2V569.2c0-10.3 8.3-18.6 18.6-18.6h857.9c10.3 0 18.6 8.3 18.6 18.6v261.1c0.1 51.4-41.8 93.2-93.3 93.2z m-100.3-37.3h100.3c30.9 0 56.1-25.1 56.1-55.9V587.8H102v242.4c0 30.9 25.2 55.9 56.1 55.9H262c27.4-116.5 131-199.4 252.1-199.4s224.7 83 252.1 199.5z" fill="#231815" p-id="5249"></path></svg>