<?xml version="1.0" standalone="no"?><!DOCTYPE svg PUBLIC "-//W3C//DTD SVG 1.1//EN" "http://www.w3.org/Graphics/SVG/1.1/DTD/svg11.dtd"><svg t="1672823931772" class="icon" viewBox="0 0 1024 1024" version="1.1" xmlns="http://www.w3.org/2000/svg" p-id="3600" xmlns:xlink="http://www.w3.org/1999/xlink" width="200" height="200"><path d="M867.3 225.3H646.9c-4.8 0-9.5-1.3-13.9-3.7l-130-156-4.1-3C479.5 48.4 456.8 41 433.3 41H156.7C92.9 41 41 96.1 41 163.8v696.3C41 927.9 92.9 983 156.7 983h710.6c63.8 0 115.8-55.1 115.8-122.9v-512c-0.1-67.7-52-122.8-115.8-122.8zM156.7 122.9h276.5c4.8 0 9.5 1.3 13.9 3.7l82.2 98.7H122.9v-61.4c0-22.3 15.5-41 33.8-41z m744.4 737.3c0 22.2-15.5 41-33.8 41H156.7c-18.3 0-33.8-18.8-33.8-41v-553h744.4c18.3 0 33.8 18.8 33.8 41v512z" p-id="3601"></path><path d="M778.2 716.8H245.8c-22.5 0-41 18.4-41 41 0 22.5 18.4 41 41 41h532.5c22.5 0 41-18.4 41-41-0.1-22.6-18.5-41-41.1-41z" p-id="3602"></path></svg>