<?xml version="1.0" standalone="no"?><!DOCTYPE svg PUBLIC "-//W3C//DTD SVG 1.1//EN" "http://www.w3.org/Graphics/SVG/1.1/DTD/svg11.dtd"><svg t="1691025233559" class="icon" viewBox="0 0 1024 1024" version="1.1" xmlns="http://www.w3.org/2000/svg" p-id="2458" xmlns:xlink="http://www.w3.org/1999/xlink" width="200" height="200"><path d="M320 480h384v-64H320z m0 128h256v-64H320z m0 128h256v-64H320z" fill="#181818" p-id="2459"></path><path d="M832 160H704V96H320v64H192c-19.2 0-32 12.8-32 32v704c0 19.2 12.8 32 32 32h640c19.2 0 32-12.8 32-32V192c0-19.2-12.8-32-32-32z m-448 0h256v64H384v-64z m416 704H224V224h96v64h384v-64h96v640z" fill="#181818" p-id="2460"></path></svg>