<?xml version="1.0" standalone="no"?><!DOCTYPE svg PUBLIC "-//W3C//DTD SVG 1.1//EN" "http://www.w3.org/Graphics/SVG/1.1/DTD/svg11.dtd"><svg t="1671614207752" class="icon" viewBox="0 0 1024 1024" version="1.1" xmlns="http://www.w3.org/2000/svg" p-id="23878" xmlns:xlink="http://www.w3.org/1999/xlink" width="200" height="200"><path d="M512 580.266667c-2.133333 0-4.266667 0-4.266667-2.133334L277.333333 465.066667c-4.266667-2.133333-6.4-8.533333-4.266666-14.933334 2.133333-4.266667 8.533333-6.4 14.933333-4.266666L512 556.8l224-113.066667c4.266667-2.133333 10.666667 0 14.933333 4.266667 2.133333 4.266667 0 10.666667-4.266666 14.933333l-230.4 115.2c0 2.133333-2.133333 2.133333-4.266667 2.133334z" fill="#ED1E79" p-id="23879"></path><path d="M512 866.133333c-6.4 0-10.666667-4.266667-10.666667-10.666666V569.6c0-6.4 4.266667-10.666667 10.666667-10.666667s10.666667 4.266667 10.666667 10.666667v285.866667c0 6.4-4.266667 10.666667-10.666667 10.666666z" fill="#ED1E79" p-id="23880"></path><path d="M742.4 981.333333c-2.133333 0-4.266667 0-4.266667-2.133333L512 868.266667 288 981.333333H277.333333L49.066667 870.4c-4.266667 0-6.4-4.266667-6.4-8.533333V569.6c0-4.266667 2.133333-8.533333 6.4-8.533333L273.066667 448V168.533333c0-4.266667 2.133333-8.533333 6.4-8.533333l230.4-115.2c2.133333-2.133333 6.4-2.133333 8.533333 0L746.666667 157.866667c4.266667 2.133333 6.4 6.4 6.4 8.533333V448l224 110.933333c4.266667 2.133333 6.4 6.4 6.4 8.533334v292.266666c0 4.266667-2.133333 8.533333-6.4 10.666667L746.666667 981.333333h-4.266667zM512 844.8c2.133333 0 4.266667 0 4.266667 2.133333L740.266667 960 960 855.466667V576l-224-110.933333c-4.266667-2.133333-6.4-6.4-6.4-8.533334V174.933333L512 66.133333 294.4 174.933333v279.466667c0 4.266667-2.133333 8.533333-6.4 8.533333L64 576v279.466667L281.6 960l224-113.066667c2.133333-2.133333 4.266667-2.133333 6.4-2.133333zM281.6 454.4z" fill="#108EE9" p-id="23881"></path></svg>